<svg width="18" height="21" viewBox="0 0 18 21" fill="none" xmlns="http://www.w3.org/2000/svg">
<path opacity="0.4" d="M9.08649 20.0117C8.96266 20.0117 8.83884 19.9833 8.72709 19.9254L5.12599 18.0613C4.10415 17.5318 3.30481 16.9376 2.68063 16.2453C1.31449 14.7312 0.554402 12.7877 0.542321 10.7716L0.500038 4.13598C0.495004 3.37014 0.989312 2.68275 1.72826 2.42387L8.3405 0.118507C8.73313 -0.0217174 9.17106 -0.0236785 9.57073 0.111643L16.2081 2.33856C16.9511 2.58665 17.4535 3.26914 17.4575 4.034L17.4998 10.6745C17.5129 12.6877 16.779 14.6391 15.434 16.1698C14.8168 16.8719 14.0245 17.4749 13.0128 18.0143L9.44388 19.9205C9.33314 19.9803 9.21032 20.0107 9.08649 20.0117Z" fill="#8A92A6"/>
<path d="M8.31887 12.3307C8.12558 12.3317 7.93229 12.262 7.78329 12.1189L5.86646 10.2754C5.57048 9.98903 5.56746 9.52423 5.86042 9.23594C6.15338 8.94667 6.63158 8.94372 6.92857 9.22908L8.3078 10.5548L11.6753 7.23456C11.9693 6.94528 12.4475 6.94234 12.7435 7.22769C13.0405 7.51403 13.0435 7.9798 12.7505 8.26712L8.85144 12.112C8.70445 12.2571 8.51217 12.3297 8.31887 12.3307Z" fill="#8A92A6"/>
</svg>
