<svg width="20" height="21" viewBox="0 0 20 21" fill="none" xmlns="http://www.w3.org/2000/svg">
<path opacity="0.4" d="M14.0756 0.0117188H17.4616C18.8639 0.0117188 20.0001 1.15757 20.0001 2.57168V5.98624C20.0001 7.40036 18.8639 8.54621 17.4616 8.54621H14.0756C12.6734 8.54621 11.5371 7.40036 11.5371 5.98624V2.57168C11.5371 1.15757 12.6734 0.0117188 14.0756 0.0117188" fill="#8A92A6"/>
<path fill-rule="evenodd" clip-rule="evenodd" d="M2.53852 0.0117188H5.92449C7.32676 0.0117188 8.46301 1.15757 8.46301 2.57168V5.98624C8.46301 7.40036 7.32676 8.54621 5.92449 8.54621H2.53852C1.13626 8.54621 0 7.40036 0 5.98624V2.57168C0 1.15757 1.13626 0.0117188 2.53852 0.0117188ZM2.53852 11.4772H5.92449C7.32676 11.4772 8.46301 12.6231 8.46301 14.0372V17.4518C8.46301 18.8649 7.32676 20.0117 5.92449 20.0117H2.53852C1.13626 20.0117 0 18.8649 0 17.4518V14.0372C0 12.6231 1.13626 11.4772 2.53852 11.4772ZM17.4615 11.4772H14.0755C12.6732 11.4772 11.537 12.6231 11.537 14.0372V17.4518C11.537 18.8649 12.6732 20.0117 14.0755 20.0117H17.4615C18.8637 20.0117 20 18.8649 20 17.4518V14.0372C20 12.6231 18.8637 11.4772 17.4615 11.4772Z" fill="#8A92A6"/>
</svg>
