<svg width="20" height="18" viewBox="0 0 20 18" fill="none" xmlns="http://www.w3.org/2000/svg">
<path opacity="0.4" d="M8.08329 12.9688H1.50777C0.675552 12.9688 0 13.6325 0 14.4501C0 15.2666 0.675552 15.9314 1.50777 15.9314H8.08329C8.91551 15.9314 9.59106 15.2666 9.59106 14.4501C9.59106 13.6325 8.91551 12.9688 8.08329 12.9688Z" fill="#8A92A6"/>
<path opacity="0.4" d="M20.0001 3.39039C20.0001 2.57386 19.3246 1.91016 18.4934 1.91016H11.9179C11.0857 1.91016 10.4102 2.57386 10.4102 3.39039C10.4102 4.20801 11.0857 4.87172 11.9179 4.87172H18.4934C19.3246 4.87172 20.0001 4.20801 20.0001 3.39039Z" fill="#8A92A6"/>
<path d="M6.87774 3.39028C6.87774 5.25695 5.33886 6.76993 3.43887 6.76993C1.53999 6.76993 0 5.25695 0 3.39028C0 1.5247 1.53999 0.0117188 3.43887 0.0117188C5.33886 0.0117188 6.87774 1.5247 6.87774 3.39028Z" fill="#8A92A6"/>
<path d="M20.0008 14.4109C20.0008 16.2765 18.4619 17.7895 16.5619 17.7895C14.663 17.7895 13.123 16.2765 13.123 14.4109C13.123 12.5442 14.663 11.0312 16.5619 11.0312C18.4619 11.0312 20.0008 12.5442 20.0008 14.4109Z" fill="#8A92A6"/>
</svg>
