<svg width="24" height="21" viewBox="0 0 24 21" fill="none" xmlns="http://www.w3.org/2000/svg">
<path fill-rule="evenodd" clip-rule="evenodd" d="M15.7967 0.910876C16.1748 0.916061 16.5538 0.921259 16.9341 0.925148C21.0204 0.925148 23.9998 3.83839 23.9998 7.86143V13.029C23.9998 17.052 21.0204 19.9653 16.9341 19.9653C15.2972 19.9999 13.6603 20.0115 12.0117 20.0115C10.363 20.0115 8.70257 19.9999 7.06569 19.9653C2.97936 19.9653 0 17.052 0 13.029V7.86143C0 3.83839 2.97936 0.925148 7.07746 0.925148C8.62014 0.902027 10.1981 0.878906 11.7997 0.878906C12.3885 0.878906 12.9773 0.878906 13.5661 0.890467C14.3085 0.890467 15.0508 0.900648 15.7967 0.910876ZM11.1343 11.8103H9.89784V13.0357C9.89784 13.5097 9.49745 13.9027 9.01463 13.9027C8.52003 13.9027 8.13142 13.5097 8.13142 13.0357V11.8103H6.88314C6.40032 11.8103 5.99993 11.4288 5.99993 10.9432C5.99993 10.4693 6.40032 10.0762 6.88314 10.0762H8.13142V8.86236C8.13142 8.38838 8.52003 7.99532 9.01463 7.99532C9.49745 7.99532 9.89784 8.38838 9.89784 8.86236V10.0762H11.1343C11.6172 10.0762 12.0175 10.4693 12.0175 10.9432C12.0175 11.4288 11.6172 11.8103 11.1343 11.8103ZM16.1387 9.858H16.2565C16.7393 9.858 17.1397 9.4765 17.1397 8.99096C17.1397 8.51698 16.7393 8.12393 16.2565 8.12393H16.1387C15.6442 8.12393 15.2555 8.51698 15.2555 8.99096C15.2555 9.4765 15.6442 9.858 16.1387 9.858ZM18.1528 13.8332H18.2706C18.7534 13.8332 19.1538 13.4517 19.1538 12.9661C19.1538 12.4921 18.7534 12.0991 18.2706 12.0991H18.1528C17.6582 12.0991 17.2696 12.4921 17.2696 12.9661C17.2696 13.4517 17.6582 13.8332 18.1528 13.8332Z" fill="#8A92A6"/>
</svg>
