<svg width="22" height="17" viewBox="0 0 22 17" fill="none" xmlns="http://www.w3.org/2000/svg">
<path d="M10.9488 10.5508C7.49884 10.5508 4.58789 11.1145 4.58789 13.2903C4.58789 15.4669 7.51765 16.0109 10.9488 16.0109C14.3988 16.0109 17.3098 15.4471 17.3098 13.2714C17.3098 11.0947 14.38 10.5508 10.9488 10.5508Z" fill="white"/>
<path opacity="0.4" d="M10.9495 8.47875C13.2856 8.47875 15.1588 6.59478 15.1588 4.24523C15.1588 1.89478 13.2856 0.0117188 10.9495 0.0117188C8.61342 0.0117188 6.74023 1.89478 6.74023 4.24523C6.74023 6.59478 8.61342 8.47875 10.9495 8.47875Z" fill="white"/>
<path opacity="0.4" d="M20.0886 5.23144C20.693 2.85397 18.9209 0.71875 16.6645 0.71875C16.4192 0.71875 16.1846 0.745767 15.9554 0.791695C15.9249 0.798899 15.8909 0.814209 15.873 0.841226C15.8524 0.875447 15.8676 0.921375 15.89 0.951093C16.5678 1.90748 16.9573 3.0719 16.9573 4.32187C16.9573 5.51961 16.6001 6.6363 15.9733 7.56298C15.9088 7.65844 15.9661 7.78721 16.0798 7.80703C16.2374 7.83494 16.3986 7.84935 16.5634 7.85386C18.2064 7.89708 19.6811 6.83353 20.0886 5.23144Z" fill="white"/>
<path d="M21.8094 10.8282C21.5086 10.1834 20.7824 9.74122 19.6783 9.52418C19.1572 9.3963 17.747 9.21619 16.4352 9.24051C16.4155 9.24321 16.4048 9.25672 16.403 9.26572C16.4003 9.27833 16.4057 9.29994 16.4316 9.31345C17.0378 9.61514 19.3811 10.9272 19.0865 13.6947C19.074 13.8144 19.1698 13.918 19.2888 13.9C19.8655 13.8171 21.3492 13.4965 21.8094 12.4978C22.0637 11.9701 22.0637 11.3568 21.8094 10.8282Z" fill="white"/>
<path opacity="0.4" d="M6.04508 0.791695C5.81675 0.744866 5.58126 0.71875 5.33592 0.71875C3.0795 0.71875 1.3075 2.85397 1.91279 5.23144C2.31931 6.83353 3.79403 7.89708 5.4371 7.85386C5.60185 7.84935 5.76392 7.83404 5.92061 7.80703C6.03433 7.78721 6.09164 7.65844 6.02717 7.56298C5.40039 6.6354 5.04312 5.51961 5.04312 4.32187C5.04312 3.071 5.43352 1.90658 6.11134 0.951093C6.13283 0.921375 6.14894 0.875447 6.12745 0.841226C6.10954 0.813308 6.07642 0.798899 6.04508 0.791695Z" fill="white"/>
<path d="M2.32156 9.52344C1.21752 9.74048 0.492248 10.1826 0.191392 10.8274C-0.0637974 11.3561 -0.0637974 11.9694 0.191392 12.498C0.651629 13.4958 2.13531 13.8173 2.71195 13.8992C2.83104 13.9173 2.92595 13.8146 2.91342 13.6939C2.61883 10.9274 4.9621 9.6153 5.56918 9.31361C5.59425 9.2992 5.59962 9.27849 5.59694 9.26498C5.59515 9.25598 5.5853 9.24247 5.5656 9.24067C4.25294 9.21545 2.84358 9.39556 2.32156 9.52344Z" fill="white"/>
</svg>
