<svg width="18" height="24" viewBox="0 0 18 24" fill="none" xmlns="http://www.w3.org/2000/svg">
<g clip-path="url(#clip0_646_1039)">
<path d="M15.7499 7.49999H16.4999C17.3296 7.49999 17.9999 8.17031 17.9999 8.99999C17.9999 9.82968 17.3296 10.5 16.4999 10.5H11.9999C11.1702 10.5 10.4999 9.82968 10.4999 8.99999C10.4999 8.17031 11.1702 7.49999 11.9999 7.49999H12.7499V3.58125L12.4733 3.67312C11.6905 3.93515 10.8374 3.51046 10.5749 2.72437C10.3171 1.93828 10.7389 1.0889 11.5264 0.826871L13.7764 0.0769655C14.2311 -0.075472 14.7374 0.00122018 15.1264 0.283122C15.5202 0.56484 15.7499 1.01765 15.7499 1.5V7.49999ZM5.20768 21H5.95768C6.82956 21 7.45768 21.6703 7.45768 22.5C7.45768 23.3297 6.82956 24 5.95768 24H1.45768C0.67159 24 -0.000143243 23.3297 -0.000143243 22.5C-0.000143243 21.6703 0.67159 21 1.45768 21H2.20768V17.0812L1.97425 17.175C1.18815 17.4328 0.338824 17.0109 0.0768396 16.2234C-0.185145 15.4406 0.23959 14.5875 1.0255 14.325L3.2755 13.575C3.733 13.425 4.23597 13.5 4.6269 13.7812C5.02018 14.0672 5.24987 14.5172 5.24987 15L5.20768 21Z" fill="#8A92A6"/>
<path opacity="0.4" d="M6 0C7.65469 0 9 1.34297 9 3V7.5C9 9.15469 7.65469 10.5 6 10.5H3C1.34297 10.5 0 9.15469 0 7.5V3C0 1.34297 1.34297 0 3 0H6ZM3 7.5H6V3H3V7.5ZM15 13.5C16.6547 13.5 18 14.8453 18 16.5V21C18 22.6547 16.6547 24 15 24H12C10.3453 24 9 22.6547 9 21V16.5C9 14.8453 10.3453 13.5 12 13.5H15ZM12 21H15V16.5H12V21Z" fill="#8A92A6"/>
</g>
<defs>
<clipPath id="clip0_646_1039">
<rect width="18" height="24" fill="white"/>
</clipPath>
</defs>
</svg>
